<?xml version="1.0" encoding="utf-8"?>
<!-- Generator: Adobe Illustrator 27.5.0, SVG Export Plug-In . SVG Version: 6.00 Build 0)  -->
<svg version="1.1" xmlns="http://www.w3.org/2000/svg" xmlns:xlink="http://www.w3.org/1999/xlink" x="0px" y="0px"
	 viewBox="0 0 500 500" style="enable-background:new 0 0 500 500;" xml:space="preserve">
<g id="BACKGROUND">
	<rect style="fill:#C5EAFF;" width="500" height="500"/>
	<g>
		<path style="fill:#FFE0B0;" d="M93.884,190.681c0,2.02-1.638,3.658-3.658,3.658c-2.02,0-3.658-1.638-3.658-3.658
			c0-2.02,1.638-3.658,3.658-3.658C92.246,187.023,93.884,188.661,93.884,190.681z"/>
		<path style="fill:#FFE0B0;" d="M99.87,326.358c0,2.02-1.638,3.658-3.658,3.658c-2.02,0-3.658-1.638-3.658-3.658
			s1.638-3.658,3.658-3.658C98.232,322.7,99.87,324.337,99.87,326.358z"/>
		<path style="fill:#FFE0B0;" d="M341.96,96.572c0,2.02-1.638,3.658-3.658,3.658c-2.02,0-3.658-1.638-3.658-3.658
			c0-2.02,1.638-3.658,3.658-3.658C340.322,92.914,341.96,94.552,341.96,96.572z"/>
		<path style="fill:#FFE0B0;" d="M80.582,173.611c0,2.02-1.638,3.658-3.658,3.658c-2.02,0-3.658-1.638-3.658-3.658
			s1.638-3.658,3.658-3.658C78.945,169.953,80.582,171.59,80.582,173.611z"/>
		<path style="fill:#FFE0B0;" d="M444.382,188.686c0,2.02-1.638,3.658-3.658,3.658c-2.02,0-3.658-1.638-3.658-3.658
			s1.638-3.658,3.658-3.658C442.744,185.028,444.382,186.665,444.382,188.686z"/>
		<path style="fill:#FFE0B0;" d="M409.465,258.187c0,2.02-1.638,3.658-3.658,3.658c-2.02,0-3.658-1.638-3.658-3.658
			s1.638-3.658,3.658-3.658C407.828,254.529,409.465,256.167,409.465,258.187z"/>
		<g>
			<path id="XMLID_136_" style="fill:#FFE0B0;" d="M254.299,49.553L254.299,49.553c-0.42-0.42-0.42-1.108,0-1.528l6.34-6.34
				c0.42-0.42,1.108-0.42,1.529,0l0,0c0.42,0.42,0.42,1.108,0,1.528l-6.34,6.34C255.407,49.974,254.719,49.974,254.299,49.553z"/>
			<path id="XMLID_135_" style="fill:#FFE0B0;" d="M254.299,41.685L254.299,41.685c0.42-0.42,1.108-0.42,1.529,0l6.34,6.34
				c0.42,0.42,0.42,1.108,0,1.528l0,0c-0.42,0.42-1.108,0.42-1.529,0l-6.34-6.34C253.879,42.793,253.879,42.106,254.299,41.685z"/>
		</g>
		<g>
			<path id="XMLID_4_" style="fill:#FFE0B0;" d="M434.851,307.757L434.851,307.757c-0.42-0.42-0.42-1.108,0-1.529l6.34-6.34
				c0.42-0.42,1.108-0.42,1.528,0l0,0c0.42,0.42,0.42,1.108,0,1.529l-6.34,6.34C435.96,308.177,435.272,308.177,434.851,307.757z"/>
			<path id="XMLID_3_" style="fill:#FFE0B0;" d="M434.851,299.889L434.851,299.889c0.42-0.42,1.108-0.42,1.529,0l6.34,6.34
				c0.42,0.42,0.42,1.108,0,1.529l0,0c-0.42,0.42-1.108,0.42-1.528,0l-6.34-6.34C434.431,300.997,434.431,300.309,434.851,299.889z"
				/>
		</g>
		<g>
			<path id="XMLID_2_" style="fill:#FFE0B0;" d="M357.589,65.735L357.589,65.735c0.595,0,1.081,0.486,1.081,1.081v8.966
				c0,0.594-0.486,1.081-1.081,1.081l0,0c-0.594,0-1.081-0.486-1.081-1.081v-8.966C356.508,66.221,356.995,65.735,357.589,65.735z"
				/>
			<path id="XMLID_1_" style="fill:#FFE0B0;" d="M363.153,71.299L363.153,71.299c0,0.595-0.486,1.081-1.081,1.081h-8.966
				c-0.594,0-1.081-0.486-1.081-1.081l0,0c0-0.594,0.486-1.081,1.081-1.081h8.966C362.666,70.218,363.153,70.704,363.153,71.299z"/>
		</g>
		<g>
			<path id="XMLID_6_" style="fill:#FFE0B0;" d="M72.269,356.043L72.269,356.043c0.594,0,1.081,0.486,1.081,1.081v8.966
				c0,0.594-0.486,1.081-1.081,1.081l0,0c-0.594,0-1.081-0.486-1.081-1.081v-8.966C71.188,356.53,71.674,356.043,72.269,356.043z"/>
			<path id="XMLID_5_" style="fill:#FFE0B0;" d="M77.832,361.607L77.832,361.607c0,0.595-0.486,1.081-1.081,1.081h-8.966
				c-0.594,0-1.081-0.486-1.081-1.081l0,0c0-0.594,0.486-1.081,1.081-1.081h8.966C77.346,360.526,77.832,361.013,77.832,361.607z"/>
		</g>
	</g>
	<g>
		<g>
			<path style="fill:#FFFFFF;" d="M413.023,163.542H308.815c-2.192,0-3.969-1.777-3.969-3.969v-38.948
				c0-2.192,1.777-3.969,3.969-3.969h104.208c2.192,0,3.969,1.777,3.969,3.969v38.948
				C416.992,161.766,415.215,163.542,413.023,163.542z"/>
			<g>
				<path style="fill:#C5EAFF;" d="M404.911,132.863h-49.649c-1.298,0-2.35-1.052-2.35-2.35v0c0-1.298,1.052-2.35,2.35-2.35h49.649
					c1.298,0,2.35,1.052,2.35,2.35v0C407.26,131.811,406.208,132.863,404.911,132.863z"/>
				<path style="fill:#C5EAFF;" d="M404.911,145.048h-87.983c-1.298,0-2.35-1.052-2.35-2.35l0,0c0-1.298,1.052-2.35,2.35-2.35
					h87.983c1.298,0,2.35,1.052,2.35,2.35l0,0C407.26,143.996,406.208,145.048,404.911,145.048z"/>
				<path style="fill:#C5EAFF;" d="M404.911,157.63h-87.983c-1.298,0-2.35-1.052-2.35-2.35l0,0c0-1.298,1.052-2.35,2.35-2.35h87.983
					c1.298,0,2.35,1.052,2.35,2.35l0,0C407.26,156.578,406.208,157.63,404.911,157.63z"/>
				
					<text transform="matrix(1 0 0 1 317.8251 132.8953)" style="fill:#8DCDF7; font-family:'FredokaOne-Regular'; font-size:11.9167px;">&lt; / &gt;</text>
			</g>
		</g>
		<g>
			<g>
				<path style="fill:#FFFFFF;stroke:#C5EAFF;stroke-width:1.5141;stroke-miterlimit:10;" d="M122.373,268.828H35.708
					c-1.652,0-2.99-1.339-2.99-2.99v-53.433c0-1.652,1.339-2.99,2.99-2.99h86.665c1.651,0,2.99,1.339,2.99,2.99v53.433
					C125.364,267.489,124.025,268.828,122.373,268.828z"/>
				<path style="fill:#FFFFFF;stroke:#C5EAFF;stroke-width:1.5141;stroke-miterlimit:10;" d="M125.364,218.652H32.718v-6.247
					c0-1.652,1.339-2.99,2.99-2.99h86.665c1.651,0,2.99,1.339,2.99,2.99V218.652z"/>
				<g>
					<circle style="fill:#8DCDF7;" cx="39.096" cy="214.113" r="2.325"/>
					<path style="fill:#8DCDF7;" d="M43.652,214.113c0-1.284,1.041-2.325,2.325-2.325c1.284,0,2.325,1.041,2.325,2.325
						c0,1.284-1.041,2.325-2.325,2.325C44.693,216.439,43.652,215.398,43.652,214.113z"/>
					<path style="fill:#8DCDF7;" d="M50.533,214.113c0-1.284,1.041-2.325,2.325-2.325c1.284,0,2.325,1.041,2.325,2.325
						c0,1.284-1.041,2.325-2.325,2.325C51.574,216.439,50.533,215.398,50.533,214.113z"/>
				</g>
			</g>
			
				<text transform="matrix(1.1408 0 0 1 52.1186 251.2208)" style="fill:#8DCDF7; font-family:'FredokaOne-Regular'; font-size:31.7827px;">css</text>
		</g>
		<g>
			
				<text transform="matrix(1.1408 0 0 1 275.1174 81.6849)" style="fill:#B2DCF7; font-family:'FredokaOne-Regular'; font-size:15px;">HTML</text>
		</g>
		
			<text transform="matrix(1.1408 0 0 1 100.2008 183.4424)" style="fill:#B2DCF7; font-family:'FredokaOne-Regular'; font-size:15px;">XML</text>
		
			<text transform="matrix(1.1408 0 0 1 419.7728 225.01)" style="fill:#B2DCF7; font-family:'FredokaOne-Regular'; font-size:15px;">JAVA</text>
		<g>
			<path style="fill:#FFFFFF;" d="M212.98,141.797H60.269c-3.214,0-5.82-2.606-5.82-5.82V57.171c0-3.215,2.606-5.82,5.82-5.82
				H212.98c3.214,0,5.82,2.606,5.82,5.82v78.806C218.801,139.192,216.195,141.797,212.98,141.797z"/>
			<g>
				<path style="fill:#C5EAFF;" d="M149.875,73.03h-26.5c-1.539,0-2.787-1.248-2.787-2.787V61.2c0-1.539,1.248-2.787,2.787-2.787
					h26.5c1.539,0,2.787,1.248,2.787,2.787v9.042C152.662,71.782,151.414,73.03,149.875,73.03z"/>
				<g>
					<path style="fill:#C5EAFF;" d="M95.69,134.735h-26.5c-1.539,0-2.787-1.248-2.787-2.787v-9.042c0-1.539,1.248-2.787,2.787-2.787
						h26.5c1.539,0,2.787,1.248,2.787,2.787v9.042C98.477,133.488,97.229,134.735,95.69,134.735z"/>
					<path style="fill:#C5EAFF;" d="M149.875,134.735h-26.5c-1.539,0-2.787-1.248-2.787-2.787v-9.042
						c0-1.539,1.248-2.787,2.787-2.787h26.5c1.539,0,2.787,1.248,2.787,2.787v9.042
						C152.662,133.488,151.414,134.735,149.875,134.735z"/>
					<path style="fill:#C5EAFF;" d="M204.06,134.735h-26.5c-1.539,0-2.787-1.248-2.787-2.787v-9.042
						c0-1.539,1.248-2.787,2.787-2.787h26.5c1.539,0,2.787,1.248,2.787,2.787v9.042C206.847,133.488,205.599,134.735,204.06,134.735
						z"/>
				</g>
				<g>
					<path style="fill:#C5EAFF;" d="M122.172,103.882h-26.5c-1.539,0-2.787-1.248-2.787-2.787v-9.042
						c0-1.539,1.248-2.787,2.787-2.787h26.5c1.54,0,2.787,1.248,2.787,2.787v9.042C124.959,102.634,123.711,103.882,122.172,103.882
						z"/>
					<path style="fill:#C5EAFF;" d="M177.578,103.882h-26.5c-1.539,0-2.787-1.248-2.787-2.787v-9.042
						c0-1.539,1.248-2.787,2.787-2.787h26.5c1.539,0,2.787,1.248,2.787,2.787v9.042
						C180.365,102.634,179.117,103.882,177.578,103.882z"/>
				</g>
				
					<polyline style="fill:none;stroke:#8DCDF7;stroke-width:1.8314;stroke-linecap:round;stroke-linejoin:round;stroke-miterlimit:10;" points="
					109.98,86.428 109.98,80.033 134.95,80.033 163.269,80.033 163.269,86.732 				"/>
				
					<line style="fill:none;stroke:#8DCDF7;stroke-width:1.8314;stroke-linecap:round;stroke-linejoin:round;stroke-miterlimit:10;" x1="136.625" y1="75.313" x2="136.625" y2="79.576"/>
				
					<polyline style="fill:none;stroke:#8DCDF7;stroke-width:1.8314;stroke-linecap:round;stroke-linejoin:round;stroke-miterlimit:10;" points="
					80.601,117.64 80.601,111.245 133.103,111.245 192.648,111.245 192.648,117.945 				"/>
				
					<line style="fill:none;stroke:#8DCDF7;stroke-width:1.8314;stroke-linecap:round;stroke-linejoin:round;stroke-miterlimit:10;" x1="136.625" y1="111.854" x2="136.625" y2="116.118"/>
				
					<line style="fill:none;stroke:#8DCDF7;stroke-width:1.8314;stroke-linecap:round;stroke-linejoin:round;stroke-miterlimit:10;" x1="109.523" y1="106.678" x2="109.523" y2="110.941"/>
				
					<line style="fill:none;stroke:#8DCDF7;stroke-width:1.8314;stroke-linecap:round;stroke-linejoin:round;stroke-miterlimit:10;" x1="164.792" y1="106.678" x2="164.792" y2="110.941"/>
			</g>
		</g>
		<path style="fill:#FFFFFF;" d="M275.556,153.751h-1.914c-0.129-0.379-0.284-0.745-0.462-1.098l1.417-1.417
			c0.605-0.605,0.605-1.596,0-2.202l-1.726-1.726c-0.605-0.605-1.596-0.605-2.202,0l-1.445,1.445
			c-0.326-0.159-0.665-0.296-1.012-0.413v-2.131c0-0.856-0.701-1.557-1.557-1.557h-2.44c-0.856,0-1.557,0.701-1.557,1.557v2.131
			c-0.328,0.111-0.648,0.239-0.957,0.387l-1.558-1.558c-0.605-0.605-1.596-0.605-2.202,0l-1.725,1.726
			c-0.605,0.605-0.605,1.596,0,2.202l1.503,1.503c-0.158,0.308-0.301,0.626-0.422,0.954h-2.181c-0.856,0-1.557,0.701-1.557,1.557
			v2.44c0,0.856,0.701,1.557,1.557,1.557h2.028c0.111,0.36,0.246,0.709,0.4,1.047l-1.468,1.468c-0.605,0.605-0.605,1.596,0,2.202
			l1.725,1.725c0.605,0.606,1.596,0.606,2.202,0l1.343-1.343c0.357,0.191,0.729,0.359,1.114,0.5v1.943
			c0,0.856,0.701,1.557,1.557,1.557h2.44c0.856,0,1.557-0.701,1.557-1.557v-1.809c0.412-0.128,0.811-0.286,1.194-0.472l1.321,1.321
			c0.605,0.605,1.596,0.605,2.202,0l1.725-1.725c0.605-0.605,0.605-1.596,0-2.202l-1.285-1.285c0.191-0.376,0.355-0.767,0.49-1.172
			h1.895c0.856,0,1.557-0.701,1.557-1.557v-2.44C277.113,154.452,276.412,153.751,275.556,153.751z M265.336,160.613
			c-2.311,0-4.184-1.873-4.184-4.184s1.873-4.184,4.184-4.184c2.311,0,4.184,1.873,4.184,4.184S267.647,160.613,265.336,160.613z"/>
		<path style="fill:#FFFFFF;" d="M451.416,256.174h-1.914c-0.129-0.379-0.284-0.745-0.462-1.098l1.417-1.417
			c0.605-0.605,0.605-1.596,0-2.202l-1.725-1.725c-0.605-0.605-1.596-0.605-2.202,0l-1.445,1.445
			c-0.326-0.159-0.665-0.296-1.012-0.413v-2.131c0-0.856-0.701-1.557-1.557-1.557h-2.44c-0.856,0-1.557,0.701-1.557,1.557v2.131
			c-0.328,0.111-0.648,0.239-0.957,0.387l-1.558-1.558c-0.605-0.605-1.596-0.605-2.202,0l-1.726,1.725
			c-0.605,0.605-0.605,1.596,0,2.202l1.503,1.503c-0.158,0.308-0.301,0.626-0.422,0.954h-2.181c-0.856,0-1.557,0.701-1.557,1.557
			v2.44c0,0.856,0.701,1.557,1.557,1.557h2.028c0.111,0.36,0.245,0.709,0.4,1.047l-1.468,1.468c-0.605,0.605-0.605,1.596,0,2.202
			l1.726,1.725c0.605,0.606,1.596,0.606,2.202,0l1.343-1.343c0.357,0.191,0.729,0.359,1.114,0.5v1.943
			c0,0.856,0.701,1.557,1.557,1.557h2.44c0.856,0,1.557-0.701,1.557-1.557v-1.809c0.412-0.128,0.811-0.286,1.194-0.472l1.321,1.321
			c0.605,0.605,1.596,0.605,2.202,0l1.725-1.725c0.606-0.605,0.606-1.596,0-2.202l-1.285-1.285c0.191-0.376,0.355-0.767,0.49-1.172
			h1.895c0.856,0,1.557-0.701,1.557-1.557v-2.44C452.973,256.875,452.272,256.174,451.416,256.174z M441.196,263.036
			c-2.311,0-4.184-1.873-4.184-4.184c0-2.311,1.873-4.184,4.184-4.184c2.311,0,4.184,1.873,4.184,4.184
			C445.38,261.163,443.507,263.036,441.196,263.036z"/>
		<path style="fill:#FFFFFF;" d="M427.565,73.959h-3.135c-0.212-0.62-0.465-1.221-0.757-1.799l2.321-2.321
			c0.992-0.992,0.992-2.615,0-3.607l-2.827-2.826c-0.992-0.992-2.615-0.992-3.607,0l-2.366,2.366
			c-0.535-0.26-1.089-0.485-1.658-0.677v-3.491c0-1.403-1.148-2.55-2.55-2.55h-3.997c-1.403,0-2.55,1.148-2.55,2.55v3.491
			c-0.537,0.182-1.061,0.391-1.568,0.633l-2.552-2.552c-0.992-0.992-2.615-0.992-3.607,0l-2.827,2.827
			c-0.992,0.992-0.992,2.615,0,3.607l2.462,2.462c-0.259,0.505-0.492,1.026-0.691,1.563h-3.572c-1.403,0-2.55,1.148-2.55,2.55v3.997
			c0,1.403,1.148,2.55,2.55,2.55h3.322c0.181,0.59,0.402,1.161,0.655,1.715l-2.405,2.405c-0.992,0.992-0.992,2.615,0,3.607
			l2.827,2.826c0.992,0.992,2.615,0.992,3.607,0l2.2-2.2c0.585,0.314,1.194,0.589,1.825,0.819v3.183c0,1.403,1.148,2.55,2.55,2.55
			h3.997c1.403,0,2.55-1.148,2.55-2.55v-2.963c0.675-0.21,1.328-0.469,1.956-0.773l2.164,2.164c0.992,0.992,2.615,0.992,3.607,0
			l2.827-2.827c0.992-0.992,0.992-2.615,0-3.607l-2.105-2.105c0.313-0.616,0.581-1.257,0.803-1.92h3.104
			c1.403,0,2.55-1.148,2.55-2.55v-3.997C430.116,75.107,428.968,73.959,427.565,73.959z M410.823,85.199
			c-3.785,0-6.854-3.069-6.854-6.854c0-3.785,3.069-6.854,6.854-6.854c3.785,0,6.854,3.069,6.854,6.854
			C417.677,82.131,414.609,85.199,410.823,85.199z"/>
		<path style="fill:#FFFFFF;" d="M79.732,313.337h-2.913c-0.197-0.576-0.432-1.134-0.704-1.672l2.156-2.156
			c0.922-0.921,0.922-2.429,0-3.351l-2.626-2.626c-0.922-0.922-2.429-0.922-3.351,0l-2.199,2.199
			c-0.497-0.242-1.012-0.45-1.541-0.629v-3.244c0-1.303-1.066-2.37-2.369-2.37h-3.714c-1.303,0-2.369,1.066-2.369,2.37v3.244
			c-0.499,0.169-0.986,0.364-1.456,0.588l-2.371-2.371c-0.922-0.922-2.43-0.922-3.351,0l-2.626,2.626
			c-0.922,0.922-0.922,2.429,0,3.351l2.287,2.287c-0.241,0.469-0.458,0.953-0.642,1.452h-3.319c-1.303,0-2.369,1.066-2.369,2.37
			v3.714c0,1.303,1.066,2.37,2.369,2.37h3.086c0.168,0.548,0.374,1.079,0.609,1.594l-2.234,2.234c-0.922,0.922-0.922,2.43,0,3.351
			l2.626,2.626c0.921,0.922,2.43,0.922,3.351,0l2.044-2.044c0.544,0.291,1.109,0.547,1.695,0.761v2.957
			c0,1.303,1.066,2.37,2.369,2.37h3.714c1.303,0,2.369-1.066,2.369-2.37v-2.753c0.627-0.195,1.234-0.436,1.817-0.718l2.011,2.011
			c0.922,0.922,2.429,0.922,3.351,0l2.626-2.626c0.922-0.921,0.922-2.429,0-3.351l-1.956-1.956c0.29-0.572,0.54-1.167,0.746-1.784
			h2.884c1.303,0,2.369-1.066,2.369-2.369v-3.714C82.101,314.403,81.035,313.337,79.732,313.337z M64.177,323.78
			c-3.517,0-6.368-2.851-6.368-6.367s2.851-6.368,6.368-6.368c3.517,0,6.368,2.851,6.368,6.368S67.694,323.78,64.177,323.78z"/>
	</g>
</g>
<g id="OBJECTS">
	<path style="fill:#FFFFFF;" d="M440.214,448.511H59.786c-1.286,0-2.328-1.042-2.328-2.328l0,0c0-1.286,1.042-2.328,2.328-2.328
		h380.427c1.286,0,2.328,1.042,2.328,2.328l0,0C442.541,447.469,441.499,448.511,440.214,448.511z"/>
	<g>
		<g>
			<g>
				<g>
					<rect x="197.477" y="351.479" style="fill:#D296DE;" width="12.692" height="75.82"/>
					<g>
						<g>
							<g>
								
									<ellipse transform="matrix(0.7247 -0.689 0.689 0.7247 -252.6984 240.3399)" style="fill:#7A298A;" cx="174.447" cy="436.434" rx="7.37" ry="7.37"/>
								<path style="fill:#FFC05C;" d="M178.336,436.434c0,2.148-1.741,3.889-3.889,3.889c-2.148,0-3.889-1.741-3.889-3.889
									c0-2.148,1.741-3.889,3.889-3.889C176.595,432.545,178.336,434.286,178.336,436.434z"/>
							</g>
							<g>
								
									<ellipse transform="matrix(0.7071 -0.7071 0.7071 0.7071 -248.9069 271.9534)" style="fill:#7A298A;" cx="203.823" cy="436.434" rx="7.37" ry="7.37"/>
								<path style="fill:#FFC05C;" d="M207.712,436.434c0,2.148-1.741,3.889-3.889,3.889c-2.148,0-3.889-1.741-3.889-3.889
									c0-2.148,1.741-3.889,3.889-3.889C205.971,432.545,207.712,434.286,207.712,436.434z"/>
							</g>
							<g>
								
									<ellipse transform="matrix(0.7071 -0.7071 0.7071 0.7071 -240.3029 292.7253)" style="fill:#7A298A;" cx="233.199" cy="436.434" rx="7.37" ry="7.37"/>
								<path style="fill:#FFC05C;" d="M237.088,436.434c0,2.148-1.741,3.889-3.889,3.889c-2.148,0-3.889-1.741-3.889-3.889
									c0-2.148,1.741-3.889,3.889-3.889C235.347,432.545,237.088,434.286,237.088,436.434z"/>
							</g>
						</g>
						<path style="fill:#D296DE;" d="M242.211,429.064h-76.776c-1.863,0-3.373-1.51-3.373-3.373v-1.033
							c0-1.863,1.51-3.373,3.373-3.373h76.776c1.863,0,3.373,1.51,3.373,3.373v1.033
							C245.584,427.554,244.074,429.064,242.211,429.064z"/>
					</g>
				</g>
				<path style="fill:#A343B5;" d="M251.393,326.914l-12.897-9.212c0,0-0.024-21.846-0.024-33.83v-35.729
					c0-13.949-11.308-25.257-25.257-25.257h-38.477c-13.949,0-25.257,11.308-25.257,25.257l0,27.187l-0.035-0.002
					c0,0-1.689,60.799,3.685,72.467c4.561,9.904,11.991,9.814,27.17,9.417h71.091c6.491,0,11.801-5.31,11.801-11.801v-6.695
					C263.194,332.224,257.884,326.914,251.393,326.914z"/>
			</g>
			<g>
				<g>
					<path style="fill:#FFA881;" d="M252.16,438.148c2.307-36.069,6.722-61.103,10.174-97.081c0.143-1.492,0.277-2.896,0.387-4.218
						c0.166-1.059,0.263-2.205,0.28-3.447c0.008-0.564-0.004-1.101-0.023-1.628c0-0.022-0.001-0.042-0.001-0.064
						c-0.003-0.067-0.003-0.137-0.005-0.203c-0.02-2.127-0.266-3.888-0.871-5.275c-1.587-5.07-5.138-7.28-9.514-7.389
						c-6.063-0.151-11.134,6.033-11.328,13.811c-0.093,3.76,1.273,6.508,3.082,9.08c-12.544,35.172-4.796,61.087-3.849,96.259
						C240.681,445.036,252.49,438.513,252.16,438.148z"/>
					<g>
						<path style="fill:#9C5F00;" d="M274.476,439.746c-1.818-4.278-17.284-8.312-20.396-9.398c-2.607-0.91-1.622,0.309-5.338,1.955
							c-1.397,0.619-4.324,1-5.794,0.657c-0.463-0.108-2.113-1.536-3.124-0.919c-0.967,0.589-0.468,2.477-0.565,3.455
							c-0.364,3.666,0.44,8.075,4.76,8.241c5.023,0.193,10.328-0.11,15.009-0.104c4.652,0.006,8.579,0.151,13.081,0.149
							C273.544,443.782,275.359,441.824,274.476,439.746z"/>
						<g>
							<path style="fill:#824E00;" d="M259.223,430.964c-0.204-0.008-0.797-0.004-1.514,0.035c0.018-0.294,0.026-0.586,0.002-0.86
								c-0.071-0.834-1.095-0.931-1.403-0.19c-0.163,0.393-0.301,0.804-0.423,1.221c-1.147,0.165-2.116,0.451-2,0.941
								c0.157,0.666,1.11,0.677,1.686,0.716c-0.024,0.355-0.023,0.711,0.02,1.064c0.094,0.785,1.328,1.433,1.739,0.471
								c0.199-0.467,0.194-0.918,0.206-1.391c0.566,0.032,1.131,0.049,1.688,0.028C260.531,432.947,260.534,431.016,259.223,430.964
								z"/>
							<path style="fill:#824E00;" d="M264.006,433.329c-0.59-0.132-1.2-0.23-1.817-0.292c-0.05-0.477-0.114-0.95-0.21-1.406
								c-0.158-0.752-1.363-0.752-1.52,0c-0.092,0.44-0.155,0.896-0.205,1.355c-0.731,0.042-1.452,0.157-2.14,0.367
								c-0.402,0.122-0.454,0.644-0.113,0.868c0.588,0.386,1.44,0.402,2.15,0.49c-0.003,0.322,0.002,0.642,0.016,0.956
								c0.059,1.355,2.048,1.357,2.107,0c0.009-0.199,0.008-0.403,0.01-0.606c0.396,0.07,0.793,0.142,1.19,0.206
								C264.721,435.469,265.29,433.617,264.006,433.329z"/>
						</g>
					</g>
					<path style="fill:#005578;" d="M263.485,331.076c-0.09-4.029-2.266-11.148-9.328-12.99c-7.95-2.074-21.01-6.096-23.803-6.622
						c-2.659-8.904-5.631-16.767-5.631-16.767l-40.884-0.178c0,0-12.157,37.674-3.202,41.368c0,0,53.767,5.521,62.227,6.046
						c-1.963,3.57-3.554,15.659-4.521,22.882c-1.096,5.867-1.999,25.671-0.618,51.992h17.137c1.717-19.585,3.767-38.61,5.78-58.594
						c0.574-5.659,1.313-10.918,1.868-16.699C262.651,340.022,263.574,335.105,263.485,331.076z"/>
				</g>
				<g>
					<path style="fill:#FFA881;" d="M228.824,435.538c1.896-36.093,6.509-59.246,9.551-95.26c0.126-1.494,0.244-2.899,0.339-4.222
						c0.153-1.061,0.238-2.208,0.241-3.45c0.001-0.564-0.016-1.101-0.042-1.628c0-0.022-0.001-0.042-0.001-0.064
						c-0.004-0.066-0.004-0.137-0.008-0.203c-0.044-2.127-0.31-3.884-0.931-5.265c-1.645-5.052-5.221-7.221-9.598-7.28
						c-6.064-0.082-11.065,6.159-11.169,13.94c-0.051,3.761,1.347,6.493,3.185,9.044c-12.143,35.313-4.581,58.308-3.235,93.466
						C217.425,441.655,229.157,435.899,228.824,435.538z"/>
					<g>
						<path style="fill:#9C5F00;" d="M251.408,439.79c-1.867-4.257-17.378-8.115-20.501-9.165c-2.617-0.881-1.618,0.327-5.315,2.015
							c-1.39,0.634-4.312,1.049-5.786,0.723c-0.464-0.103-2.196-1.441-3.134-0.884c-0.973,0.578-0.44,2.483-0.526,3.461
							c-0.322,3.67,0.532,8.07,4.854,8.187c5.025,0.136,10.326-0.228,15.007-0.275c4.651-0.046,8.877-0.012,13.379-0.065
							C250.82,443.77,252.315,441.857,251.408,439.79z"/>
						<path style="fill:#824E00;" d="M250.934,436.685c-0.912-1.46-2.83-1.855-4.41-2.137c-2.458-0.439-5.06-1.178-7.567-1.441
							c-0.077-0.008-0.131,0.146-0.051,0.179c2.892,1.203,6.027,1.439,8.92,2.334c2.216,0.685,3.821,2.857,2.584,5.24
							c-0.926,1.785-2.553,1.891-4.112,2.642c-0.259,0.125-0.146,0.306,0.08,0.327C249.96,444.162,252.954,439.918,250.934,436.685z
							"/>
						<g>
							<path style="fill:#824E00;" d="M235.809,431.118c-0.204-0.008-0.797-0.004-1.514,0.035c0.018-0.294,0.026-0.586,0.002-0.86
								c-0.071-0.834-1.095-0.931-1.403-0.19c-0.163,0.393-0.301,0.804-0.423,1.221c-1.147,0.165-2.116,0.451-2,0.941
								c0.157,0.666,1.11,0.677,1.686,0.715c-0.024,0.355-0.023,0.711,0.02,1.064c0.094,0.785,1.328,1.433,1.739,0.471
								c0.199-0.467,0.194-0.918,0.206-1.391c0.566,0.032,1.131,0.049,1.688,0.028C237.118,433.101,237.12,431.169,235.809,431.118z
								"/>
							<path style="fill:#824E00;" d="M240.592,433.482c-0.59-0.132-1.2-0.23-1.817-0.292c-0.05-0.477-0.114-0.95-0.21-1.406
								c-0.158-0.752-1.363-0.752-1.52,0c-0.092,0.44-0.155,0.896-0.205,1.356c-0.731,0.042-1.452,0.157-2.14,0.367
								c-0.402,0.122-0.454,0.644-0.113,0.868c0.588,0.386,1.44,0.402,2.15,0.49c-0.003,0.322,0.002,0.642,0.016,0.956
								c0.059,1.355,2.048,1.357,2.106,0c0.009-0.199,0.008-0.403,0.01-0.606c0.396,0.07,0.793,0.142,1.19,0.206
								C241.307,435.622,241.877,433.77,240.592,433.482z"/>
						</g>
					</g>
					<path style="fill:#005578;" d="M238.771,330.987c-0.326-5.616-2.178-11.434-8.327-12.595c-0.224-0.136-0.473-0.235-0.755-0.234
						c0,0-25.323-3.475-27.195-3.475c-0.854,1.338-26.278,15.366-23.032,20.292c2.004,3.041,31.093,5.855,39.558,6.284
						c-1.922,3.592-3.858,13.181-5.144,26.897c-0.717,7.643-0.587,23.905,1.046,48.806h16.828
						c1.662-22.111,3.743-43.728,5.713-66.171c0.306-3.475,0.61-6.963,0.91-10.512c0.126-1.493,0.244-2.898,0.339-4.221
						C238.826,334.487,238.873,332.747,238.771,330.987z"/>
				</g>
				<g>
					<path style="fill:#003D57;" d="M236.771,321.704c-6.224-7.09-22.199-7.071-30.665-7.09c-0.476-0.001-0.466,0.699,0,0.733
						c6.022,0.429,15.425,0.268,22.356,3.035c4.679,1.868,8.526,3.569,9.152,9.186c0.942,8.457-0.587,21.23-1.181,29.71
						c0.107,1.286,0.321,1.072,0.536,0.054c0.589-7.408,2.17-15.587,2.494-23.012C239.652,329.998,239.855,325.217,236.771,321.704z
						"/>
					<g>
						<path style="fill:#003D57;" d="M230.059,419.315h-13.833c-1.437,0-2.602-1.165-2.602-2.602v-0.118
							c0-1.437,1.165-2.602,2.602-2.602h13.833c1.437,0,2.603,1.165,2.603,2.602v0.118
							C232.662,418.15,231.497,419.315,230.059,419.315z"/>
						<path style="fill:#003D57;" d="M253.294,419.315h-13.833c-1.437,0-2.602-1.165-2.602-2.602v-0.118
							c0-1.437,1.165-2.602,2.602-2.602h13.833c1.437,0,2.602,1.165,2.602,2.602v0.118
							C255.896,418.15,254.731,419.315,253.294,419.315z"/>
					</g>
				</g>
			</g>
		</g>
		<g>
			<g>
				<rect x="373.648" y="304.94" style="fill:#006F9E;" width="13.554" height="138.94"/>
				<rect x="353.382" y="304.94" style="fill:#1EA1D9;" width="13.554" height="138.94"/>
			</g>
			<g>
				<rect x="134.137" y="304.94" style="fill:#1EA1D9;" width="13.554" height="138.94"/>
				<rect x="113.871" y="304.94" style="fill:#006F9E;" width="13.554" height="138.94"/>
			</g>
			<rect x="113.63" y="303.437" style="fill:#006F9E;" width="273.474" height="10.963"/>
			<path style="fill:#006F9E;" d="M390.704,307.822H109.296c-1.913,0-3.464-1.551-3.464-3.464v-4.766
				c0-1.913,1.551-3.464,3.464-3.464h281.409c1.913,0,3.464,1.551,3.464,3.464v4.766
				C394.168,306.271,392.618,307.822,390.704,307.822z"/>
		</g>
		<g>
			<g>
				<g>
					<path style="fill:#FFB69C;" d="M234.251,250.502c-3.316-12.203-10.532-24.89-16.314-23.288l-1.652,0.391
						c-5.783,1.602-5.35,9.35,0,25.896c3.906,12.083,12.593,43.011,20.394,43.386c1.489,0.072,3.404,0.234,4.222-0.614
						C247.004,289.938,237.245,261.518,234.251,250.502z"/>
					<path style="fill:#FF9B00;" d="M218.46,226.888c-5.914-0.058-8.215,6.798-6.291,17.302c1.605,8.762,3.186,19.232,4.604,20.444
						c1.558,1.332,20.148-2.774,20.7-4.071c0.465-1.092-2.752-10.927-5.456-19.594C228.564,229.899,226.367,226.964,218.46,226.888z
						"/>
				</g>
				<path style="fill:#FFB69C;" d="M294.689,296.962c6.295,0.23-3.071-6.205-8.291-7.434c-1.784-0.42-4.12-1.203-9.724,0.563
					c-7.363-1.274-22.38-5.566-29.171-6.372c-6.723-0.797-12.654-1.409-13.511,5.502c-0.565,4.56,0.019,7.726,3.704,7.706
					c2.323-0.012,4.247-0.016,5.662-0.004C252.263,297.001,292.303,296.875,294.689,296.962z"/>
			</g>
			<path style="fill:#652273;" d="M299.621,296.999h-62.582c-1.152,0-2.086-0.934-2.086-2.086l0,0c0-1.152,0.934-2.086,2.086-2.086
				h62.582c1.152,0,2.086,0.934,2.086,2.086l0,0C301.707,296.065,300.773,296.999,299.621,296.999z"/>
			<g>
				<g>
					<g>
						<path style="fill:#1EA1D9;" d="M205.049,165.732c-4.19-8.404-16.451-9.955-22.883-3.327c-0.781,0.804-1.459,1.708-2.003,2.688
							c-2.682,4.825-2.066,11.023,2.205,14.69c0.36,0.384,0.739,0.748,1.155,1.067c2.513,1.931,5.71,2.538,8.906,2.169
							c0.197-0.008,0.395-0.011,0.592-0.027c4.851-0.385,9.839-3.191,11.77-7.666C206.393,172.512,206.768,169.18,205.049,165.732z"
							/>
						<path style="fill:#1EA1D9;" d="M184.64,196.463c2.091,10.135,7.467,14.934,12.636,14.79
							c7.339-0.204,11.196,0.646,16.226-3.877c10.277-9.241,15.109-24.628,4.022-33.421c-4.88-3.87-11.776-4.22-17.565-3.001
							c-3.769,0.793-9.384,3.489-12.161,7.991C184.225,184.738,183.378,190.347,184.64,196.463z"/>
						
							<rect x="225.858" y="192.766" transform="matrix(0.0237 -0.9997 0.9997 0.0237 25.4438 417.2073)" style="fill:#825919;" width="0.924" height="5.622"/>
					</g>
					<g>
						<g>
							<path style="fill:#FFB69C;" d="M223.638,228.876c-3.486-0.703-13.943-4.077-15.662-4.742c0.018-0.338,0.096-5.014,0.123-5.55
								c-1.38-1.833-14.176-14.931-14.731-14.938c-0.042,1.519,0.407,16.355,0.271,19.882c0,0-3.684,1.77-6.196,2.714
								c-2.511,0.944-6.163,5.354-6.163,5.354s7.594,51.574,9.509,55.522c3.197,0.07,24.51,1.698,27.621,1.767
								C219.337,283.841,223.621,231.798,223.638,228.876z"/>
							<path style="fill:#FA7032;" d="M208.098,218.584c-0.014,0.278-0.042,1.667-0.067,2.989c-1.723,0.416-6.296-2.172-7.648-3.193
								c-3.307-2.495-6.675-5.281-6.833-5.49c-0.094-4.707-0.205-8.424-0.183-9.244
								C193.923,203.652,206.719,216.751,208.098,218.584z"/>
						</g>
						<g>
							<path style="fill:#FF9B00;" d="M220.208,227.118c-2.435-0.461-6.71-1.416-9.578-2.073
								c4.425,12.037-11.515,13.127-19.562-0.362c0,0-4.187,1.376-10.096,3.74c-4.094,1.638-4.811,6.755-3.787,10.543
								c2.047,16.172,5.911,48.439,6.73,55.707c5.094,0.112,34.205-0.285,40.149-0.154c0.166-2.953,0.225-15.975-0.051-24.847
								c0.282-0.846,0.456-2.238,0.768-3.071c1.436-3.836,2.731-4.735,3.071-8.854c0.422-5.121-2.998-11.819-4.136-18.085
								c-0.624-3.439,3.483-7.639,2.038-9.704C224.141,227.655,220.931,227.255,220.208,227.118z"/>
							<g>
								<path style="fill:#DE8800;" d="M223.914,242.762c1.112,4.014,2.768,7.908,3.125,12.101
									c0.412,4.838-1.679,8.065-3.145,12.354c-1.022,2.991-0.548,6.449-0.523,9.544c0.036,4.543-0.201,9.182,0.363,13.693
									c0.049,0.395,0.577,0.402,0.62,0c0.524-4.814,0.174-9.767,0.135-14.606c-0.025-3.13-0.335-6.263,0.896-9.263
									c0.535-1.303,1.373-2.42,1.858-3.763c2.395-6.635,0.102-14.204-2.901-20.24C224.223,242.34,223.844,242.51,223.914,242.762
									L223.914,242.762z"/>
								<g>
									<path style="fill:#DE8800;" d="M200.374,266.369c2.098,0.638,4.235,1.25,6.428,1.298c2.192,0.048,4.479-0.529,6.098-2.008"
										/>
								</g>
							</g>
						</g>
					</g>
					<g>
						<path style="fill:#FFB69C;" d="M212.632,175.051c-4.555-0.978-16.946-3.218-21.613,5.861
							c-1.233,2.399,0.603,11.434,0.633,14.598c-0.086,3.908-0.768,9.361,4.189,15.386c2.888,3.51,8.215,6.337,10.968,7.845
							c3.861,2.115,9.372,1.313,11.882-1.752c2.333-2.85,4.127-7.499,4.93-11.608c0.82-4.197-0.156-6.605,0.203-9.343
							c0.275-2.097,0.004-7.35-0.445-9.331C221.619,178.939,217.187,176.03,212.632,175.051z"/>
						<g>
							<g>
								<g>
									<path style="fill:#1EA1D9;" d="M202.762,194.24c-0.166,0.207-0.317,0.442-0.386,0.718
										c-0.069,0.275-0.043,0.596,0.114,0.805c0.174,0.231,0.467,0.275,0.722,0.204c0.255-0.07,0.485-0.235,0.722-0.374
										c1.016-0.593,2.154-0.685,3.251-0.622c0.872,0.05,2.195,0.501,2.962-0.258c0.01-0.007,0.022-0.012,0.032-0.02
										c0.564-0.422,0.656-1.221,0.248-1.816c-0.397-0.58-1.081-0.764-1.677-0.812c-1.077-0.085-2.162,0.15-3.213,0.487
										c-0.947,0.304-1.913,0.717-2.635,1.522C202.854,194.128,202.807,194.183,202.762,194.24z"/>
									<path style="fill:#573500;" d="M204.8,196.807c0.036-0.185,0.284-0.237,0.411-0.115c0.315,0.306,0.491,0.61,0.948,0.721
										c0.017,0.004,0.036,0.008,0.054,0.011c0.184-0.162,0.402-0.291,0.655-0.361c0.895-0.25,1.823,0.273,2.072,1.168
										c0.249,0.895-0.273,1.823-1.169,2.072c-0.895,0.25-1.823-0.273-2.072-1.168c-0.087-0.312-0.075-0.627,0.009-0.916
										C205.155,197.956,204.695,197.34,204.8,196.807z"/>
								</g>
								<g>
									<path style="fill:#1EA1D9;" d="M223.473,194.074c-0.722-0.805-1.688-1.219-2.635-1.522
										c-1.052-0.337-2.136-0.573-3.213-0.487c-0.596,0.048-1.28,0.232-1.677,0.812c-0.408,0.595-0.316,1.394,0.248,1.816
										c0.01,0.008,0.021,0.012,0.032,0.02c0.768,0.758,2.091,0.308,2.962,0.258c1.097-0.063,2.235,0.029,3.251,0.622
										c0.237,0.138,0.467,0.303,0.722,0.374c0.255,0.07,0.548,0.027,0.722-0.204c0.157-0.208,0.183-0.529,0.114-0.805
										c-0.069-0.275-0.22-0.511-0.386-0.718C223.568,194.183,223.522,194.128,223.473,194.074z"/>
									<path style="fill:#573500;" d="M221.576,196.807c-0.036-0.185-0.284-0.237-0.411-0.115
										c-0.315,0.306-0.491,0.61-0.948,0.721c-0.017,0.004-0.036,0.008-0.053,0.011c-0.184-0.162-0.402-0.291-0.655-0.361
										c-0.895-0.25-1.822,0.273-2.072,1.168c-0.249,0.895,0.273,1.823,1.169,2.072c0.894,0.25,1.823-0.273,2.072-1.168
										c0.087-0.312,0.075-0.627-0.009-0.916C221.221,197.956,221.681,197.34,221.576,196.807z"/>
								</g>
							</g>
							<path style="fill:#F70577;" d="M218.625,208.41c-1.441,1.277-2.201,3.059-4.44,2.803c-1.678-0.192-2.973-1.177-4.345-2.051
								c-0.268-0.171-0.656,0.183-0.455,0.455c2.622,3.553,8.374,3.871,9.772-0.898C219.252,208.399,218.853,208.207,218.625,208.41
								z"/>
							<g>
								<path style="fill:#FA7032;" d="M216.389,201.456c-0.643-1.249-0.863-2.651-1.09-4.029c-0.036-0.214-0.395-0.213-0.431,0
									c-0.22,1.275-0.053,2.674,0.441,3.868c0.366,0.884,1.03,1.645,1.383,2.524c0.747,1.862-0.294,2.208-1.533,2.922
									c-0.234,0.135-0.175,0.484,0.073,0.56c1.44,0.444,2.824-1.284,2.765-2.632C217.945,203.515,216.904,202.457,216.389,201.456
									z"/>
								<path style="fill:#FA7032;" d="M213.711,206.801c-0.27-0.163-0.466-0.222-0.626-0.516c-0.169-0.309-0.145-0.651-0.283-0.969
									c-0.06-0.138-0.289-0.129-0.352,0c-0.371,0.761,0.102,2.36,1.184,2.078C213.908,207.324,213.946,206.944,213.711,206.801z"
									/>
							</g>
						</g>
					</g>
					<g>
						<g>
							<path style="fill:#1EA1D9;" d="M224.353,180.644c-1.429-3.442-4.446-7.067-7.942-8.588c-1.59-0.691-3.107-0.637-4.088,0.22
								c-0.63-0.428-1.438-0.653-2.459-0.575c-0.801,0.061-1.523,0.278-2.178,0.602c-2.394-0.723-5.266-0.533-7.275,0.257
								c-5.017,1.973-10.821,6.407-12.488,11.699c-0.943,2.991-1.733,11.756,2.266,13.414c3.554,1.473,5.956-3.048,6.859-6.535
								c0.762,1.28,2.005,2.096,3.752,1.659c2.607-0.653,3.935-3.307,4.44-5.874c0.201,0.205,0.419,0.386,0.647,0.554
								c0.931,0.949,2.086,1.366,3.455,0.814c0.055-0.009,0.108-0.009,0.164-0.019c2.689-0.502,3.836-3.469,4.087-6.475
								c0.512,1.79,1.33,3.446,2.542,4.545c1.382,1.255,2.645,1.012,3.299-0.104c0.949,1.948,2.69,4.26,4.699,3.07
								C226.721,187.774,225.194,182.671,224.353,180.644z"/>
							<g>
								<path style="fill:#006F9E;" d="M187.963,174.766c-3.555-2.024-5.03-6.38-3.863-10.183c0.036-0.118-0.151-0.203-0.204-0.086
									c-0.963,2.085-1.289,4.275-0.309,6.445c0.772,1.708,2.267,3.85,4.174,4.305C188.045,175.315,188.23,174.918,187.963,174.766
									z"/>
								<path style="fill:#006F9E;" d="M191.69,171.568c-2.646-1.025-4.692-2.863-4.797-5.863c-0.006-0.178-0.261-0.175-0.274,0
									c-0.234,3.042,1.659,6.304,4.973,6.586C192.036,172.329,192.047,171.707,191.69,171.568z"/>
								<path style="fill:#006F9E;" d="M198.007,164.704c-0.664-1.986-2.911-4.565-5.187-4.511
									c-0.272,0.006-0.421,0.412-0.147,0.544c1.565,0.757,3.144,1.682,4.068,3.207c0.418,0.69,0.898,1.772,0.955,2.614
									c0.139,2.039-0.871,2.527-2.189,3.392c-0.162,0.106-0.014,0.366,0.153,0.262
									C198.058,168.713,198.973,167.593,198.007,164.704z"/>
								<path style="fill:#006F9E;" d="M200.143,161.76c-0.297-0.238-0.838,0.072-0.578,0.446c0.668,0.96,1.58,1.828,1.939,2.974
									c0.547,1.744-0.398,3.189-1.848,4.086c-0.158,0.098-0.016,0.342,0.146,0.249c1.396-0.803,2.669-1.513,2.731-3.334
									C202.592,164.452,201.441,162.799,200.143,161.76z"/>
								<path style="fill:#006F9E;" d="M219.27,182.781c-1.251-0.985-2.465-1.767-3.337-3.154c-0.799-1.271-1.263-2.71-1.657-4.149
									c-0.06-0.219-0.383-0.17-0.39,0.053c-0.102,3.198,2.027,6.697,5.009,7.895C219.245,183.567,219.568,183.015,219.27,182.781z
									"/>
								<path style="fill:#006F9E;" d="M220.551,177.204c-1.861-2.08-4.443-4.172-7.388-3.806c-0.139,0.017-0.203,0.236-0.036,0.269
									c5.24,1.035,9.034,6.02,10.502,10.944c0.12,0.401,0.722,0.325,0.73-0.099C224.406,181.847,222.272,179.127,220.551,177.204z
									"/>
								<path style="fill:#006F9E;" d="M209.785,174.141c-2.224-0.192-4.648,1.621-6.061,3.19c-1.847,2.05-3.219,4.823-3.566,7.565
									c-0.05,0.399,0.548,0.429,0.666,0.09c1.597-4.602,3.887-9.121,9.025-10.378
									C210.124,174.542,210.041,174.163,209.785,174.141z"/>
								<path style="fill:#006F9E;" d="M203.916,174.327c-6.641,2.249-10.062,8.022-10.163,14.945
									c-0.005,0.324,0.527,0.415,0.581,0.079c1.056-6.557,3.105-12.015,9.653-14.766
									C204.14,174.52,204.083,174.271,203.916,174.327z"/>
								<path style="fill:#006F9E;" d="M211.397,176.663c-0.611,1.58-0.41,3.377-0.93,5.01c-0.53,1.665-1.504,2.831-2.839,3.913
									c-0.299,0.242,0.084,0.611,0.376,0.487c3.13-1.331,4.493-6.411,3.427-9.41C211.425,176.646,211.403,176.647,211.397,176.663
									L211.397,176.663z"/>
								<path style="fill:#006F9E;" d="M186.169,182.747c1.961-3.645,3.867-6.527,7.59-8.562c4.246-2.322,8.392-3.176,13.179-3.35
									c0.387-0.014,0.373-0.553,0-0.592c-8.693-0.897-17.999,4.139-21.065,12.379
									C185.808,182.795,186.083,182.908,186.169,182.747L186.169,182.747z"/>
							</g>
						</g>
						<g>
							<g>
								<path style="fill:#825919;" d="M205.05,204.588c-4.431,0-8.035-3.605-8.035-8.035c0-4.431,3.605-8.035,8.035-8.035
									c4.431,0,8.035,3.604,8.035,8.035C213.085,200.983,209.481,204.588,205.05,204.588z M205.05,189.441
									c-3.922,0-7.112,3.19-7.112,7.112c0,3.922,3.19,7.112,7.112,7.112c3.921,0,7.112-3.19,7.112-7.112
									C212.162,192.631,208.971,189.441,205.05,189.441z"/>
								<path style="fill:#825919;" d="M222.572,204.588c-4.037,0-7.321-3.605-7.321-8.035c0-4.431,3.284-8.035,7.321-8.035
									c4.037,0,7.321,3.604,7.321,8.035C229.894,200.983,226.61,204.588,222.572,204.588z M222.572,189.441
									c-3.528,0-6.398,3.19-6.398,7.112c0,3.922,2.87,7.112,6.398,7.112c3.528,0,6.398-3.19,6.398-7.112
									C228.97,192.631,226.1,189.441,222.572,189.441z"/>
								<rect x="212.549" y="198.253" style="fill:#825919;" width="3.301" height="0.923"/>
							</g>
							
								<rect x="194" y="192.766" transform="matrix(0.0237 -0.9997 0.9997 0.0237 -5.6604 385.3584)" style="fill:#825919;" width="0.924" height="5.622"/>
						</g>
						<g>
							<path style="fill:#FFB69C;" d="M186.666,206.078c0.346,0.394,0.735,0.76,1.196,1.011c0.542,0.296,1.163,0.421,1.779,0.464
								c1.051,0.073,2.128-0.089,3.073-0.555c0.944-0.465,1.747-1.245,2.157-2.215l-0.544-7.568
								c-0.506-0.79-1.229-1.408-2.055-1.848c-1.161-0.62-2.531-0.877-3.837-0.676c-0.034,0.005-0.067,0.014-0.101,0.02
								c-0.599,0.103-1.189,0.294-1.685,0.643c-0.728,0.512-1.201,1.316-1.52,2.147
								C184.037,200.353,184.652,203.785,186.666,206.078z"/>
							<path style="fill:#FA7032;" d="M192.411,198.655c-0.551-1.259-2.166-2.083-3.666-1.898c-1.524,0.197-2.491,1.476-2.462,3.261
								c0.024,1.557,0.636,3.784,2.28,4.933c0.546,0.38,1.161,0.592,1.728,0.604c0.183,0.004,0.361-0.013,0.53-0.051
								c0.535-0.122,0.97-0.456,1.257-0.967c0.057-0.101,0.001-0.201-0.11-0.402c-0.156-0.285-0.419-0.759-0.23-1.092
								c0.187-0.327,0.553-0.416,0.796-0.476c0.177-0.043,0.316-0.077,0.339-0.214C193.084,201.07,192.693,199.227,192.411,198.655z
								 M191.002,202.948c-0.149,0.637,0.136,1.221,0.242,1.439c0.005,0.011,0.011,0.022,0.015,0.031
								c-0.063,0.096-0.298,0.26-0.666,0.336c-0.307,0.062-1.081,0.129-1.637-0.603c-0.055-0.072-0.541-0.724-0.6-1.246
								c-0.104-0.908,0.344-1.327,0.911-1.857l0.176-0.165h0.001c0.14-0.135,0.285-0.266,0.432-0.398
								c0.345-0.313,0.701-0.636,0.997-0.998c0.17-0.21,0.499-0.673,0.518-1.153c0.21,0.213,0.408,0.487,0.462,0.699
								c0.104,0.41,0.427,1.801,0.353,2.879C191.801,202.023,191.141,202.345,191.002,202.948z M189.165,199.967
								c-0.528,0.465-1.074,0.945-1.418,1.665c-0.093,0.195-0.156,0.4-0.189,0.611c-0.241-0.582-0.397-1.209-0.452-1.812
								c-0.086-0.961,0.117-1.771,0.57-2.28c0.364-0.41,0.885-0.627,1.546-0.646c0.482-0.01,0.959,0.091,1.415,0.313
								C190.472,198.818,189.837,199.376,189.165,199.967z"/>
						</g>
					</g>
				</g>
				<g>
					<g>
						<path style="fill:#FFB69C;" d="M198.632,252.753c-3.316-12.203-10.532-24.89-16.314-23.288l-1.652,0.391
							c-5.782,1.602-5.349,9.35,0,25.896c3.906,12.083,12.593,43.011,20.394,43.386c1.489,0.072,3.404,0.234,4.222-0.614
							C211.385,292.19,201.626,263.77,198.632,252.753z"/>
						<path style="fill:#FF9B00;" d="M182.303,227.911c-5.718,1.509-7.677,8.027-5.753,18.53c1.604,8.762,3.186,19.232,4.604,20.444
							c1.558,1.332,20.147-2.774,20.7-4.071c0.465-1.092-2.752-10.927-5.456-19.594
							C192.945,232.151,189.673,225.966,182.303,227.911z"/>
						<path style="fill:#DE8800;" d="M202.432,262.552c-0.002-0.02,0.003-0.037-0.002-0.058c-1.499-6.534-3.222-13.362-6.087-19.45
							c-0.057-0.12-0.245-0.035-0.211,0.089c1.804,6.558,4.016,12.922,5.512,19.577c0.007,0.031,0.023,0.051,0.035,0.077
							c-0.689,0.504-1.654,0.659-2.441,0.943c-0.868,0.313-1.749,0.651-2.561,1.094c-0.009,0.005-0.005,0.021,0.005,0.02
							c1.333-0.159,2.64-0.558,3.921-0.948c0.715-0.217,1.611-0.373,1.847-1.174C202.469,262.661,202.458,262.603,202.432,262.552z"
							/>
					</g>
					<path style="fill:#FFB69C;" d="M264.085,299.214c6.295,0.23-2.84-6.41-8.061-7.638c-1.783-0.42-5.297-0.998-10.901,0.768
						c-7.363-1.274-26.448-5.566-33.24-6.372c-6.723-0.797-14.925-1.529-15.782,5.382c-0.565,4.56,2.29,7.845,5.975,7.826
						c2.323-0.012,4.247-0.016,5.662-0.004C216.643,299.253,261.698,299.127,264.085,299.214z"/>
					<path style="fill:#FA7032;" d="M262.731,294.593c-4.865-4.336-11.416-4.337-17.322-2.392c-3.441-0.726-6.921-1.13-10.35-1.911
						c-1.955-0.445-4.662-1.247-6.797-1.334c-0.088-0.004-0.083,0.14-0.021,0.165c2.464,0.997,5.186,1.545,7.502,2.13
						c3.049,0.771,6.519,1.484,9.663,1.539c0.059,0.001,0.101-0.029,0.143-0.057c0.443-0.006,0.819-0.18,1.394-0.332
						c2.644-0.699,4.551-0.909,7.307-0.542c1.164,0.155,2.43,0.201,3.576,0.456c1.881,0.419,3.078,1.646,4.683,2.568
						C262.684,294.984,262.891,294.736,262.731,294.593z"/>
				</g>
			</g>
		</g>
		<g>
			<path style="fill:#652273;" d="M376.185,267.489H270.937c-4.337,0-7.671-3.837-7.066-8.132l7.838-55.603
				c0.496-3.521,3.51-6.14,7.066-6.14h105.248c4.337,0,7.671,3.837,7.066,8.132l-7.838,55.603
				C382.755,264.87,379.741,267.489,376.185,267.489z"/>
			<polygon style="fill:#7A298A;" points="359.734,293.217 326.879,293.217 315.695,249.178 348.549,249.178 			"/>
			<path style="fill:#652273;" d="M370.952,296.694h-57.001c-1.101,0-1.994-0.893-1.994-1.994v-0.184
				c0-1.101,0.893-1.994,1.994-1.994h57.001c1.101,0,1.994,0.893,1.994,1.994v0.184
				C372.946,295.801,372.053,296.694,370.952,296.694z"/>
			<path style="fill:#A343B5;" d="M354.26,241.217h-51.28c-1.018,0-1.842-0.825-1.842-1.842l0,0c0-1.017,0.825-1.842,1.842-1.842
				h51.28c1.017,0,1.842,0.825,1.842,1.842l0,0C356.102,240.392,355.277,241.217,354.26,241.217z"/>
		</g>
	</g>
	<g>
		<g>
			<path style="fill:#FFC05C;" d="M402.203,391.772c-6.244-5.883,0.992-14.702-4.342-21.283c-1.58-1.949-3.719-3.3-5.5-5.037
				c-3.393-3.309-2.349-7.701-3.41-11.936c-1.261-5.035-4.636-10.88-10.337-11.459c-4.637-0.471-8.609,5.244-9.09,9.43
				c-0.777,6.756,5.568,13.751,8.874,18.976c1.696,2.681,3.289,5.282,3.81,8.501c0.422,2.609-0.59,5.173-0.902,7.727
				c-0.406,3.319,0.456,6.003,1.892,8.981c1.352,2.804,3.177,5.162,5.277,7.468c1.597,1.754,3.45,3.206,5.098,4.899
				c0.974,1,1.651,2.017,2.186,3.099c0.141,0.953,0.477,1.774,0.973,2.45c0.18,0.556,0.351,1.13,0.522,1.737
				c0.12,0.427,0.809,0.404,0.883-0.041c0.021-0.126,0.03-0.242,0.047-0.364c1.516,0.929,3.57,1.166,5.751,0.583
				c1.444-0.386,2.425-0.844,3.036-2.276c0.275-0.644,0.159-1.42,0.195-2.1c0.157-2.913-0.081-5.077,0.782-7.952
				C409.714,397.286,406.16,395.5,402.203,391.772z"/>
			<path style="fill:#FFE0B0;" d="M401.351,404.979c-2.147-6.479-9.004-11.319-9.66-18.082c-0.308-3.172,0.544-6.618-0.26-9.731
				c-0.592-2.293-2.258-4.817-3.551-6.738c-1.635-2.427-3.512-4.57-4.88-7.185c-2.053-3.923-2.992-7.575-4.039-11.84
				c-0.098-0.398-0.771-0.435-0.844,0c-0.773,4.629,0.81,8.914,2.951,12.969c2.563,4.854,7.085,8.758,8.028,14.299
				c0.919,5.401-0.705,10.408,2.578,15.179c1.672,2.429,11.884,13.995,7.021,17.07c-0.908,0.574-0.299,1.85,0.704,1.671
				C402.828,411.98,402.158,407.414,401.351,404.979z"/>
		</g>
		<g>
			<path style="fill:#FFC05C;" d="M447.295,354.788c-2.118-4.623-5.483-9.227-10.913-9.741c-4.579-0.433-7.051,3.85-7.779,7.828
				c-1.6,8.743,0.784,20.63-7.544,26.383c-3.972,2.744-5.063,7.267-4.77,12.026c0.291,4.748,2.474,7.272,1.186,12.315
				c-0.655,2.563-1.618,5.267-0.621,7.912c1.362,3.611,6.358,5.609,9.054,2.522c0.152-0.174,0.23-0.353,0.261-0.527
				c2.039-1.076,3.434-2.248,4.18-5.632c1.06-4.805,0.017-10.011,5.345-12.57c2.505-1.203,4.752-1.59,6.813-3.696
				c1.965-2.008,2.952-4.33,3.271-7.087c0.16-1.383,0.096-2.76,0.051-4.147c-0.11-3.356,0.172-5.06,1.585-8.218
				C449.934,366.529,449.892,360.457,447.295,354.788z"/>
			<path style="fill:#FFE0B0;" d="M437.988,352.78c-0.054-0.248-0.466-0.259-0.512,0c-1.095,6.19,1.938,12.597,0.363,18.935
				c-0.968,3.896-2.956,8.402-6.21,10.929c-1.898,1.474-4.299,2.237-6.071,3.888c-3.712,3.459-5.016,9.872-6.007,14.595
				c-0.823,3.927-1.583,8.701,2.418,11.046c0.75,0.44,1.82-0.485,1.261-1.261c-3.692-5.13-0.738-14.855,2.225-20.1
				c2.373-4.201,7.561-5.192,10.408-8.998C442.723,372.639,440.2,362.948,437.988,352.78z"/>
		</g>
		<g>
			<path style="fill:#FFC05C;" d="M420.733,397.875c-0.967-2.739-1.257-4.997-0.593-7.821c0.297-1.263,0.786-2.547,0.765-3.868
				c-0.05-3.075-2.198-4.637-3.47-7.204c-3.268-6.595,3.575-14.093-0.894-20.736c-1.42-2.11-3.114-3.275-3.906-5.807
				c-0.652-2.083-0.378-3.554-0.289-5.632c0.118-2.775-0.553-5.345-2.197-7.639c-2.403-3.353-7.751-5.596-11.257-2.36
				c-4.915,4.536,2.409,12.299,2.841,17.088c0.306,3.397-1.836,6.451-2.207,9.743c-0.383,3.392-0.237,6.872,1.084,10.022
				c2.395,5.714,5.991,8.689,4.257,15.549c-1.01,3.997-3.978,7.001-4.056,11.225c-0.101,5.487,3.978,9.975,9.154,10.839
				c1.62,1.577,3.935,1.538,5.925-0.593C419.74,406.555,422.685,403.4,420.733,397.875z"/>
			<path style="fill:#FFE0B0;" d="M413.06,395.143c0.822-2.215,0.869-3.977,0.893-6.288c0.056-5.408-2.175-9.412-4.745-13.989
				c-3.347-5.963-0.019-13.107-0.806-19.462c-0.582-4.7-2.04-9.676-5.41-13.039c-0.205-0.204-0.524,0.054-0.393,0.303
				c3.289,6.233,3.727,12.79,3.137,19.608c-0.467,5.39-0.487,10.251,2.295,14.931c1.604,2.7,3.341,5.992,3.66,9.178
				c0.395,3.949-0.846,6.82-1.95,10.447c-1.502,4.935-0.984,9.916,2.344,13.923c0.769,0.926,2.031-0.253,1.57-1.212
				C410.976,403.964,410.943,400.853,413.06,395.143z"/>
		</g>
		<g>
			<polygon style="fill:#A343B5;" points="425.748,443.966 395.178,443.966 390.178,405.059 430.748,405.059 			"/>
			<polygon style="fill:#D296DE;" points="393.403,432.146 395.178,443.966 425.748,443.966 427.523,432.146 			"/>
		</g>
	</g>
</g>
<g id="DESIGNED_BY_FREEPIK">
	<g>
		<g id="XMLID_319_">
			<g id="XMLID_338_">
				<path id="XMLID_346_" style="fill:#1D262D;" d="M260.104,465.465c-0.432,0.443-0.803,0.931-1.108,1.453l-0.465-0.241
					c-0.067-0.298-0.349-0.503-0.659-0.466c-0.331,0.039-0.568,0.339-0.529,0.67c0.039,0.331,0.339,0.568,0.67,0.529
					c0.066-0.008,0.127-0.026,0.184-0.052l0.451,0.234c-0.251,0.554-0.433,1.139-0.539,1.744l0.747,0.132
					c0.23-1.306,0.85-2.507,1.792-3.473L260.104,465.465z"/>
				<path id="XMLID_345_" style="fill:#1D262D;" d="M265.592,463.163c-0.171,0-0.341,0.006-0.51,0.017l-0.074-0.626
					c0.188-0.149,0.296-0.389,0.266-0.645c-0.046-0.393-0.402-0.674-0.795-0.628c-0.393,0.046-0.674,0.402-0.628,0.795
					c0.03,0.254,0.189,0.461,0.404,0.564l0.074,0.624c-0.714,0.116-1.403,0.332-2.06,0.646l0.327,0.684
					c0.934-0.447,1.942-0.673,2.995-0.673c0.496,0,0.993,0.053,1.475,0.158l0.161-0.741
					C266.692,463.222,266.142,463.163,265.592,463.163z"/>
				<path id="XMLID_344_" style="fill:#1D262D;" d="M272.194,465.711c0.331-0.04,0.566-0.341,0.526-0.672
					c-0.04-0.331-0.341-0.566-0.672-0.526c-0.309,0.038-0.535,0.304-0.53,0.609l-0.416,0.363c-0.418-0.43-0.889-0.813-1.408-1.139
					l-0.404,0.641c1.134,0.715,2.021,1.726,2.563,2.925l0.69-0.313c-0.251-0.554-0.567-1.072-0.942-1.545l0.402-0.351
					C272.065,465.716,272.129,465.719,272.194,465.711z"/>
				<path id="XMLID_343_" style="fill:#1D262D;" d="M265.044,473.372c-0.386,0.023-0.775,0.035-1.157,0.035
					c-0.88,0-1.733-0.061-2.478-0.179c-0.39-0.062-0.846-0.155-1.27-0.292c1.046,1.861,3.069,3.125,5.388,3.125
					c2.855,0,5.262-1.916,5.95-4.504c-0.682,0.449-1.505,0.825-2.459,1.123C267.839,473.047,266.463,473.286,265.044,473.372z"/>
				<path id="XMLID_339_" style="fill:#1D262D;" d="M265.592,464.68c-3.352,0-6.08,2.666-6.08,5.943
					c0,0.426,0.046,0.849,0.137,1.261c0.673,0.483,2.706,0.89,5.348,0.731c2.879-0.173,5.297-0.957,6.672-2.159
					c-0.006-0.195-0.021-0.39-0.045-0.582C271.244,466.913,268.65,464.68,265.592,464.68z M263.432,471.194
					c-1.02,0-1.85-0.83-1.85-1.85c0-1.02,0.83-1.85,1.85-1.85c1.02,0,1.85,0.83,1.85,1.85
					C265.282,470.365,264.452,471.194,263.432,471.194z M268.17,470.286c-0.75,0-1.36-0.61-1.36-1.36s0.61-1.361,1.36-1.361
					c0.75,0,1.361,0.61,1.361,1.361S268.92,470.286,268.17,470.286z"/>
			</g>
			<path id="XMLID_336_" style="fill:#1D262D;" d="M281.595,466.547c-0.295-0.116-0.805-0.309-1.382-0.237
				c-0.551,0.069-0.844,0.341-0.844,1.007v0.866h2.228v1.717h-2.228v5.455h-1.932v-5.455h-1.34v-1.717h1.34v-0.888
				c0-1.68,0.896-2.783,2.568-2.783c0.643,0,1.157,0.122,1.59,0.308L281.595,466.547z"/>
			<path id="XMLID_334_" style="fill:#1D262D;" d="M286.298,469.879c-0.177-0.03-0.358-0.046-0.526-0.046
				c-0.896,0-1.51,0.548-1.51,1.614v3.908h-1.932v-7.172h1.873v0.785c0.451-0.673,1.14-0.977,2.021-0.977
				c0.414,0,0.848,0.128,1.094,0.337L286.298,469.879z"/>
			<path id="XMLID_331_" style="fill:#1D262D;" d="M293.965,471.757c0,0.222-0.015,0.489-0.037,0.651h-5.085
				c0.207,1.036,0.933,1.488,1.843,1.488c0.622,0,1.295-0.252,1.813-0.688l1.133,1.243c-0.814,0.748-1.85,1.088-3.057,1.088
				c-2.198,0-3.723-1.495-3.723-3.753c0-2.258,1.48-3.797,3.627-3.797C292.544,467.99,293.958,469.522,293.965,471.757z
				 M288.851,471.091h3.175c-0.177-0.918-0.733-1.436-1.562-1.436C289.554,469.655,289.021,470.203,288.851,471.091z"/>
			<path id="XMLID_328_" style="fill:#1D262D;" d="M301.618,471.757c0,0.222-0.015,0.489-0.037,0.651h-5.085
				c0.207,1.036,0.932,1.488,1.843,1.488c0.622,0,1.295-0.252,1.814-0.688l1.132,1.243c-0.814,0.748-1.85,1.088-3.057,1.088
				c-2.198,0-3.723-1.495-3.723-3.753c0-2.258,1.48-3.797,3.627-3.797C300.197,467.99,301.611,469.522,301.618,471.757z
				 M296.504,471.091h3.175c-0.178-0.918-0.733-1.436-1.562-1.436C297.207,469.655,296.674,470.203,296.504,471.091z"/>
			<path id="XMLID_325_" style="fill:#1D262D;" d="M309.964,471.764c0,2.154-1.495,3.775-3.471,3.775
				c-0.962,0-1.643-0.378-2.109-0.933v3.708h-1.924v-10.133h1.887v0.792c0.466-0.585,1.155-0.984,2.139-0.984
				C308.469,467.99,309.964,469.61,309.964,471.764z M304.287,471.764c0,1.132,0.747,1.976,1.843,1.976
				c1.14,0,1.85-0.881,1.85-1.976c0-1.095-0.71-1.976-1.85-1.976C305.035,469.788,304.287,470.632,304.287,471.764z"/>
			<path id="XMLID_322_" style="fill:#1D262D;" d="M313.068,465.836c0,0.696-0.54,1.229-1.236,1.229
				c-0.696,0-1.229-0.533-1.229-1.229c0-0.696,0.533-1.243,1.229-1.243C312.527,464.592,313.068,465.14,313.068,465.836z
				 M312.809,475.354h-1.932v-7.172h1.932V475.354z"/>
			<path id="XMLID_320_" style="fill:#1D262D;" d="M316.032,470.736l2.701-2.554h2.368l-3.479,3.375l3.501,3.797h-2.376
				l-2.716-2.901v2.901H314.1v-10.658h1.932V470.736z"/>
		</g>
		<g>
			<path style="fill:#1D262D;" d="M184.412,475.289v-1.055c-0.527,0.718-1.391,1.23-2.388,1.23c-1.846,0-3.149-1.406-3.149-3.706
				c0-2.256,1.289-3.721,3.149-3.721c0.952,0,1.816,0.469,2.388,1.245v-3.765h1.099v9.77H184.412z M184.412,473.37v-3.208
				c-0.395-0.615-1.245-1.143-2.124-1.143c-1.421,0-2.27,1.172-2.27,2.739c0,1.567,0.85,2.724,2.27,2.724
				C183.168,474.483,184.017,473.986,184.412,473.37z"/>
			<path style="fill:#1D262D;" d="M186.932,471.744c0-2.051,1.465-3.706,3.486-3.706c2.139,0,3.398,1.67,3.398,3.794v0.279h-5.727
				c0.088,1.333,1.025,2.446,2.549,2.446c0.805,0,1.626-0.322,2.182-0.894l0.527,0.718c-0.703,0.703-1.655,1.084-2.812,1.084
				C188.44,475.465,186.932,473.956,186.932,471.744z M190.403,468.947c-1.509,0-2.256,1.274-2.314,2.358h4.643
				C192.718,470.25,192.015,468.947,190.403,468.947z"/>
			<path style="fill:#1D262D;" d="M194.607,474.351l0.571-0.791c0.469,0.542,1.362,1.011,2.329,1.011c1.084,0,1.67-0.513,1.67-1.216
				c0-1.714-4.38-0.659-4.38-3.281c0-1.098,0.952-2.036,2.636-2.036c1.201,0,2.051,0.454,2.622,1.026l-0.513,0.762
				c-0.424-0.513-1.201-0.894-2.109-0.894c-0.967,0-1.567,0.483-1.567,1.113c0,1.552,4.38,0.527,4.38,3.281
				c0,1.187-0.952,2.138-2.783,2.138C196.306,475.465,195.325,475.113,194.607,474.351z"/>
			<path style="fill:#1D262D;" d="M201.477,466.471c0-0.41,0.337-0.747,0.732-0.747c0.41,0,0.747,0.337,0.747,0.747
				c0,0.41-0.337,0.732-0.747,0.732C201.814,467.203,201.477,466.881,201.477,466.471z M201.667,475.289v-7.075h1.099v7.075H201.667
				z"/>
			<path style="fill:#1D262D;" d="M204.582,477.105l0.556-0.82c0.586,0.703,1.289,0.967,2.3,0.967c1.172,0,2.27-0.571,2.27-2.124
				v-1.011c-0.513,0.718-1.377,1.26-2.373,1.26c-1.845,0-3.149-1.377-3.149-3.662c0-2.27,1.289-3.677,3.149-3.677
				c0.952,0,1.802,0.469,2.373,1.245v-1.069h1.098v6.87c0,2.344-1.641,3.076-3.369,3.076
				C206.237,478.16,205.417,477.926,204.582,477.105z M209.709,473.253v-3.091c-0.381-0.615-1.23-1.143-2.109-1.143
				c-1.421,0-2.27,1.128-2.27,2.695c0,1.553,0.849,2.695,2.27,2.695C208.478,474.41,209.328,473.868,209.709,473.253z"/>
			<path style="fill:#1D262D;" d="M217.413,475.289v-4.629c0-1.245-0.63-1.641-1.582-1.641c-0.865,0-1.685,0.527-2.095,1.099v5.17
				h-1.099v-7.075h1.099v1.025c0.498-0.586,1.465-1.201,2.519-1.201c1.48,0,2.256,0.747,2.256,2.285v4.966H217.413z"/>
			<path style="fill:#1D262D;" d="M219.932,471.744c0-2.051,1.465-3.706,3.486-3.706c2.139,0,3.398,1.67,3.398,3.794v0.279h-5.727
				c0.088,1.333,1.025,2.446,2.549,2.446c0.806,0,1.626-0.322,2.183-0.894l0.527,0.718c-0.703,0.703-1.655,1.084-2.812,1.084
				C221.441,475.465,219.932,473.956,219.932,471.744z M223.404,468.947c-1.509,0-2.256,1.274-2.314,2.358h4.643
				C225.718,470.25,225.015,468.947,223.404,468.947z"/>
			<path style="fill:#1D262D;" d="M233.35,475.289v-1.055c-0.527,0.718-1.392,1.23-2.388,1.23c-1.846,0-3.149-1.406-3.149-3.706
				c0-2.256,1.289-3.721,3.149-3.721c0.952,0,1.817,0.469,2.388,1.245v-3.765h1.098v9.77H233.35z M233.35,473.37v-3.208
				c-0.396-0.615-1.245-1.143-2.124-1.143c-1.421,0-2.27,1.172-2.27,2.739c0,1.567,0.849,2.724,2.27,2.724
				C232.105,474.483,232.954,473.986,233.35,473.37z"/>
			<path style="fill:#1D262D;" d="M239.692,475.289v-9.77h1.098v3.765c0.572-0.776,1.421-1.245,2.388-1.245
				c1.845,0,3.149,1.465,3.149,3.721c0,2.299-1.304,3.706-3.149,3.706c-0.996,0-1.86-0.513-2.388-1.23v1.055H239.692z
				 M242.9,474.483c1.436,0,2.285-1.157,2.285-2.724c0-1.568-0.85-2.739-2.285-2.739c-0.864,0-1.728,0.527-2.109,1.143v3.208
				C241.171,473.986,242.036,474.483,242.9,474.483z"/>
			<path style="fill:#1D262D;" d="M247.528,477.061c0.161,0.073,0.425,0.117,0.601,0.117c0.483,0,0.805-0.161,1.055-0.747
				l0.469-1.069l-2.959-7.148h1.187l2.358,5.8l2.344-5.8h1.201l-3.545,8.51c-0.425,1.025-1.143,1.421-2.08,1.435
				c-0.234,0-0.601-0.044-0.805-0.103L247.528,477.061z"/>
		</g>
	</g>
</g>
</svg>
